<?xml version="1.0" standalone="no"?>
<!DOCTYPE svg PUBLIC "-//W3C//DTD SVG 20010904//EN"
 "http://www.w3.org/TR/2001/REC-SVG-20010904/DTD/svg10.dtd">
<svg version="1.0" xmlns="http://www.w3.org/2000/svg"
 width="400.000000pt" height="400.000000pt" viewBox="0 0 400.000000 400.000000"
 preserveAspectRatio="xMidYMid meet">
<metadata>
Created by potrace 1.11, written by Peter Selinger 2001-2013
</metadata>
<g transform="translate(0.000000,400.000000) scale(0.100000,-0.100000)"
fill="#000000" stroke="none">
<path d="M0 2000 l0 -2000 2000 0 2000 0 0 2000 0 2000 -2000 0 -2000 0 0
-2000z m1839 1696 c88 -46 50 -186 -50 -186 -51 0 -98 47 -99 98 0 43 14 68
48 86 35 19 66 20 101 2z m319 -111 c90 -42 179 -124 215 -199 15 -29 32 -86
38 -125 l12 -71 171 0 c257 0 341 -24 441 -124 28 -28 64 -78 81 -111 l29 -60
3 -1237 2 -1237 -24 -16 c-18 -12 -30 -14 -43 -7 -10 6 -119 116 -243 246
l-225 236 -700 0 c-597 0 -710 2 -760 15 -127 33 -212 104 -268 223 l-32 67
-3 820 c-3 741 -1 826 14 883 33 127 126 228 251 275 56 21 72 22 581 25 l523
3 -7 37 c-16 92 -56 135 -172 189 -62 29 -76 40 -89 70 -20 50 -1 101 47 126
42 21 61 18 158 -28z"/>
<path d="M1335 2281 c-46 -28 -71 -60 -104 -132 -33 -69 -65 -203 -75 -309 -6
-64 -6 -65 11 -40 99 137 149 175 233 175 84 0 132 -36 233 -175 17 -25 18
-23 12 65 -12 175 -53 305 -118 374 -58 61 -135 78 -192 42z"/>
<path d="M2505 2281 c-46 -28 -71 -60 -104 -132 -33 -69 -65 -203 -75 -309 -6
-64 -6 -65 11 -40 99 137 149 175 233 175 84 0 132 -36 233 -175 17 -25 18
-23 12 65 -12 175 -53 305 -118 374 -58 61 -135 78 -192 42z"/>
</g>
</svg>
